<?xml version="1.0" standalone="no"?>
<!DOCTYPE svg PUBLIC "-//W3C//DTD SVG 20010904//EN"
 "http://www.w3.org/TR/2001/REC-SVG-20010904/DTD/svg10.dtd">
<svg version="1.0" xmlns="http://www.w3.org/2000/svg"
 width="800.000000pt" height="864.000000pt" viewBox="0 0 800.000000 864.000000"
 preserveAspectRatio="xMidYMid meet">

<g transform="translate(0.000000,864.000000) scale(0.100000,-0.100000)"
fill="#000000" stroke="none">
<path d="M3670 7259 c-469 -52 -917 -215 -1294 -470 -56 -38 -109 -75 -118
-82 -17 -13 -18 -106 -18 -1686 l0 -1672 157 3 157 3 129 225 c71 124 187 324
257 445 623 1077 840 1453 846 1470 5 13 -14 15 -144 15 l-150 0 -60 -102
c-32 -57 -247 -429 -477 -828 -230 -399 -424 -734 -432 -745 -11 -16 -13 200
-13 1348 l0 1367 73 47 c104 68 355 193 472 236 650 237 1320 217 1949 -59
552 -242 1042 -729 1292 -1286 155 -344 226 -677 226 -1058 0 -519 -141 -988
-428 -1420 -97 -148 -186 -254 -333 -400 -266 -264 -569 -459 -909 -585 l-103
-38 3 -141 c3 -165 -16 -155 168 -90 259 93 596 280 805 449 567 455 934 1091
1046 1816 33 209 33 609 0 818 -77 498 -268 942 -574 1341 -95 123 -335 367
-457 464 -392 312 -855 516 -1355 597 -149 24 -568 35 -715 18z"/>
<path d="M1912 6398 c-432 -445 -704 -1020 -777 -1643 -19 -167 -19 -482 0
-648 47 -400 177 -788 378 -1122 128 -214 230 -346 412 -534 438 -453 981
-732 1620 -833 191 -31 602 -33 800 -4 72 10 138 22 148 27 16 9 17 83 17
1329 l0 1320 450 0 450 0 0 -470 0 -470 130 0 130 0 0 1080 0 1080 -130 0
-130 0 0 -480 0 -480 -585 0 -585 0 0 -1334 0 -1335 -47 -7 c-85 -14 -431 -8
-554 9 -453 62 -841 218 -1199 480 -119 88 -148 113 -288 251 -448 440 -709
1011 -754 1654 -13 179 -2 408 28 582 70 410 236 795 485 1126 l78 103 3 201
c2 110 2 200 1 200 -1 0 -37 -37 -81 -82z"/>
<path d="M4240 5165 l0 -345 135 0 136 0 -3 343 -3 342 -132 3 -133 3 0 -346z"/>
<path d="M3294 4113 c-15 -26 -49 -85 -75 -130 l-47 -82 153 -266 c84 -147
157 -271 162 -276 5 -5 75 -8 156 -7 l147 3 -156 270 c-86 149 -185 322 -222
385 -97 170 -85 160 -118 103z"/>
</g>
</svg>
